<svg width="243px" height="243px" viewBox="0 0 2253.00 2253.00" version="1.1" xmlns="http://www.w3.org/2000/svg" xmlns:xlink="http://www.w3.org/1999/xlink" xml:space="preserve" xmlns:serif="http://www.serif.com/" style="fill-rule:evenodd;clip-rule:evenodd;stroke-linecap:round;stroke-linejoin:round;stroke-miterlimit:1.5;" fill="#000000" transform="rotate(0)" stroke="#000000"><g id="SVGRepo_bgCarrier" stroke-width="0"></g><g id="SVGRepo_tracerCarrier" stroke-linecap="round" stroke-linejoin="round" stroke="#27385D" stroke-width="4.506"></g><g id="SVGRepo_iconCarrier"><rect id="donut_chart" x="1.997" y="0" width="2250" height="2250" style="fill:none;"></rect><path d="M1147.83,208.333c-517.767,0 -937.5,419.733 -937.5,937.5c-0,428.307 290.274,802.155 705.228,908.271l116.136,-454.135c-207.477,-53.058 -352.614,-239.982 -352.614,-454.136c-0,-258.883 209.866,-468.75 468.75,-468.75l-0,-468.75Z" style="fill:#3453ab;stroke:#202020;stroke-width:0.02253;"></path><path d="M1997.49,749.576c-153.977,-330.174 -485.321,-541.243 -849.663,-541.243l-0,468.704c182.171,0 347.843,105.535 424.832,270.622l424.831,-198.083Z" style="fill:#EF4444;stroke:#202020;stroke-width:0.02253;"></path><path d="M905.188,2051.39c500.124,134.008 1014.19,-162.788 1148.2,-662.913c64.353,-240.168 30.664,-496.064 -93.656,-711.393l-405.95,234.375c62.16,107.665 79.005,235.613 46.828,355.697c-67.003,250.062 -324.036,398.46 -574.099,331.456l-121.321,452.778Z" style="fill:#22C55E;stroke:#202020;stroke-width:0.02253;"></path></g></svg>
